PathFileType	4	(X/Y/Z)	D:\luciana\vassoio.trc
DataRate	CameraRate	NumFrames	NumMarkers	Units	OrigDataRate	OrigDataStartFrame	OrigNumFrames
250.00	250.00	15	20	mm	250.00	185	2051
Frame#	Time	pelvisR			Trunk1			Trunk2			Trunk3			C7			shoulder			upperArm1			upperArm2			upperArm3			elbow			forearm1			forearm2			forearm3			wrist1			wrist2			wrist3			Object1			Hand			Object2			Object3			
		X1	Y1	Z1	X2	Y2	Z2	X3	Y3	Z3	X4	Y4	Z4	X5	Y5	Z5	X6	Y6	Z6	X7	Y7	Z7	X8	Y8	Z8	X9	Y9	Z9	X10	Y10	Z10	X11	Y11	Z11	X12	Y12	Z12	X13	Y13	Z13	X14	Y14	Z14	X15	Y15	Z15	X16	Y16	Z16	X17	Y17	Z17	X18	Y18	Z18	X19	Y19	Z19	X20	Y20	Z20	

184	0.736000	1707.325935	666.527152	733.190596	1483.079314	867.445469	637.586355	1545.232773	814.471900	634.216428	1455.599546	776.235461	633.986592	1548.456907	1131.319761	816.167355	1721.957803	1054.513216	761.662364	1797.506809	878.826261	853.128672	1846.944809	889.147460	797.923505	1796.087742	889.188886	729.697287	1829.265237	754.255176	772.062898	1873.488307	699.186563	717.797220	1818.874121	658.851981	762.968600	1830.283403	749.975741	682.712972	1847.254992	671.290994	575.461090	1830.671191	603.056848	612.903595	1781.990051	708.125174	573.068857	1558.623314	578.746259	482.168794	1826.442003	602.333009	505.636692	1639.304876	551.976323	395.445108	1495.976686	552.390695	395.158827	
185	0.740000	1707.323909	666.529715	733.189881	1483.054638	867.416561	637.596607	1545.237899	814.473093	634.210110	1455.587149	776.240826	633.978605	1548.448086	1131.323814	816.158295	1721.961498	1054.515004	761.667788	1797.495842	878.821254	853.128910	1846.945882	889.143407	797.928691	1796.077251	889.184952	729.697049	1829.269171	754.245698	772.069931	1873.491406	699.193954	717.812121	1818.864107	658.862889	762.965977	1830.287457	749.975026	682.704449	1847.250104	671.295226	575.469494	1830.683827	603.063583	612.910390	1781.982422	708.128631	573.065042	1558.618784	578.743160	482.171237	1826.454163	602.357328	505.627513	1639.299512	551.959157	395.437658	1496.003985	552.392483	395.164937	
186	0.744000	1707.317352	666.528821	733.183205	1483.042717	867.401600	637.589216	1545.240879	814.464033	634.200633	1455.578089	776.242375	633.970797	1548.460364	1131.328106	816.149294	1721.960425	1054.513454	761.664867	1797.495961	878.819704	853.131711	1846.937418	889.136791	797.919154	1796.066403	889.177740	729.683697	1829.252720	754.245520	772.076249	1873.481750	699.189484	717.815399	1818.862915	658.860564	762.968183	1830.281019	749.971032	682.694137	1847.249031	671.297371	575.469077	1830.682278	603.054047	612.897038	1781.980753	708.128452	573.064446	1558.627129	578.744531	482.160717	1826.418638	602.361560	505.623400	1639.250517	551.938653	395.446897	1495.988131	552.389026	395.170212	
187	0.748000	1707.304478	666.529238	733.173370	1483.013153	867.401481	637.578607	1545.237780	814.457655	634.195149	1455.582023	776.240945	633.953154	1548.456311	1131.326079	816.140532	1721.958876	1054.511070	761.665523	1797.493935	878.810763	853.126943	1846.933484	889.131486	797.917008	1796.065807	889.185369	729.678035	1829.240084	754.255354	772.074699	1873.469472	699.181437	717.814445	1818.860531	658.848882	762.972116	1830.269814	749.962091	682.695389	1847.243547	671.300411	575.457335	1830.667734	603.050709	612.879992	1781.981349	708.133280	573.056281	1558.613539	578.743219	482.161283	1826.425552	602.362692	505.611539	1639.291883	551.972747	395.445466	1495.982766	552.389145	395.165324	
188	0.752000	1707.300901	666.533411	733.186781	1483.029485	867.402554	637.568474	1545.235515	814.461708	634.187996	1455.589056	776.234210	633.949876	1548.439264	1131.319642	816.139460	1721.957088	1054.521918	761.669040	1797.498107	878.805161	853.116989	1846.929312	889.129102	797.918200	1796.073198	889.182925	729.676545	1829.242945	754.253149	772.068143	1873.474836	699.179769	717.816651	1818.849802	658.837497	762.967706	1830.256104	749.958992	682.697117	1847.239971	671.303809	575.455666	1830.647945	603.058338	612.864614	1781.984329	708.132446	573.052108	1558.593512	578.744888	482.153416	1826.440573	602.366626	505.601168	1639.313817	551.993430	395.441800	1495.920420	552.378833	395.147741	
189	0.756000	1707.305312	666.534603	733.196676	1483.067513	867.421925	637.549400	1545.235157	814.450979	634.181201	1455.583572	776.230574	633.956790	1548.431873	1131.314635	816.144109	1721.958756	1054.507971	761.655390	1797.499895	878.803909	853.129983	1846.925020	889.125705	797.909141	1796.060801	889.172196	729.681432	1829.238415	754.256189	772.073150	1873.468518	699.183881	717.811704	1818.843246	658.835649	762.964547	1830.252171	749.968767	682.688117	1847.237110	671.306729	575.457156	1830.656767	603.072524	612.862289	1781.970739	708.129108	573.049664	1558.572054	578.729093	482.154846	1826.430678	602.363229	505.603135	1639.287949	551.981747	395.440489	1495.919585	552.374244	395.151854	
190	0.760000	1707.303762	666.534603	733.198225	1483.074665	867.429376	637.535691	1545.227647	814.436197	634.185493	1455.572724	776.225090	633.950472	1548.425674	1131.305337	816.133082	1721.958160	1054.492474	761.651695	1797.495604	878.801644	853.132606	1846.921444	889.123261	797.907829	1796.049356	889.171958	729.682684	1829.224944	754.246712	772.075832	1873.462200	699.184597	717.813969	1818.837523	658.835173	762.959540	1830.238342	749.967039	682.693303	1847.226381	671.306312	575.452685	1830.677271	603.091359	612.882495	1781.952977	708.126664	573.051631	1558.574319	578.728437	482.158989	1826.430678	602.370501	505.592227	1639.329791	551.995754	395.433158	1495.914936	552.371740	395.157427	
191	0.764000	1707.298756	666.524589	733.193040	1483.067751	867.424130	637.551129	1545.214534	814.426184	634.180844	1455.578089	776.220322	633.937538	1548.421741	1131.294250	816.135466	1721.961141	1054.500222	761.647344	1797.495127	878.795564	853.126645	1846.915483	889.126778	797.911644	1796.049237	889.166832	729.665220	1829.220653	754.240096	772.067904	1873.461485	699.181020	717.808843	1818.834901	658.831179	762.954414	1830.236197	749.961793	682.694733	1847.225904	671.306431	575.451434	1830.672026	603.075504	612.887919	1781.943083	708.124161	573.051810	1558.586597	578.726470	482.155085	1826.426148	602.376342	505.590081	1639.340043	552.001297	395.436466	1495.910525	552.368283	395.152867	
192	0.768000	1707.291365	666.530132	733.183980	1483.053923	867.391229	637.562275	1545.214176	814.429998	634.178936	1455.572844	776.207328	633.947372	1548.441172	1131.298542	816.124320	1721.959710	1054.507017	761.635661	1797.486186	878.792465	853.123724	1846.911907	889.120698	797.912478	1796.052337	889.155805	729.666948	1829.215407	754.237950	772.072375	1873.458982	699.173570	717.816949	1818.841100	658.828199	762.958586	1830.229521	749.956250	682.694018	1847.220421	671.305776	575.448751	1830.653071	603.058815	612.879455	1781.943560	708.125114	573.049545	1558.578610	578.720868	482.160985	1826.410294	602.382600	505.588531	1639.308214	552.001238	395.437151	1495.915890	552.361548	395.137429	
193	0.772000	1707.298398	666.525602	733.163714	1483.044982	867.379189	637.558103	1545.217037	814.431250	634.178281	1455.564022	776.211262	633.936584	1548.425913	1131.306052	816.106558	1721.959114	1054.504275	761.631489	1797.477603	878.788769	853.129148	1846.906304	889.110982	797.904968	1796.039104	889.147878	729.678035	1829.216003	754.238009	772.083163	1873.450756	699.174941	717.815042	1818.837285	658.828139	762.958527	1830.221891	749.960244	682.697475	1847.208738	671.305776	575.444162	1830.652118	603.053570	612.875104	1781.944513	708.133519	573.047101	1558.581471	578.722835	482.161820	1826.417446	602.383196	505.583525	1639.342308	551.995933	395.434380	1495.916605	552.365184	395.143092	
194	0.776000	1707.296371	666.520834	733.148932	1483.050466	867.380142	637.546599	1545.212388	814.434409	634.170949	1455.568790	776.215494	633.922398	1548.419595	1131.316781	816.101074	1721.954584	1054.506779	761.641204	1797.468662	878.780603	853.122294	1846.896887	889.105082	797.905564	1796.032906	889.151514	729.681611	1829.195023	754.231513	772.068083	1873.444676	699.179530	717.809200	1818.829775	658.831120	762.963057	1830.212116	749.962211	682.691753	1847.206712	671.309114	575.442016	1830.649376	603.059053	612.883925	1781.938434	708.136678	573.047042	1558.583736	578.727543	482.152343	1826.427817	602.379560	505.596161	1639.312387	551.957309	395.439923	1495.916724	552.390337	395.166457	
195	0.780000	1707.290888	666.526675	733.154595	1483.045340	867.381632	637.529135	1545.213461	814.443469	634.164631	1455.562592	776.206672	633.936644	1548.436642	1131.318331	816.088557	1721.947908	1054.505587	761.635959	1797.454357	878.779948	853.109419	1846.891642	889.100671	797.899902	1796.036959	889.159381	729.679108	1829.174519	754.225194	772.055209	1873.430729	699.182153	717.804372	1818.811297	658.829570	762.959838	1830.203891	749.959171	682.695210	1847.205043	671.305418	575.450301	1830.633521	603.067338	612.851143	1781.930208	708.131492	573.042929	1558.592319	578.732729	482.134163	1826.417923	602.376938	505.594969	1639.275670	551.952779	395.437777	1495.927095	552.404106	395.157099	
196	0.784000	1707.294822	666.533291	733.168662	1483.024240	867.405415	637.540042	1545.214057	814.444423	634.167910	1455.568314	776.208758	633.933783	1548.438668	1131.314397	816.078067	1721.937656	1054.500341	761.619747	1797.450542	878.775060	853.118062	1846.892118	889.096260	797.909975	1796.018600	889.155149	729.667306	1829.171538	754.215837	772.062540	1873.419285	699.165583	717.807412	1818.801999	658.826351	762.962937	1830.198884	749.955416	682.697058	1847.204685	671.298623	575.452805	1830.641389	603.062749	612.853169	1781.924129	708.125889	573.034704	1558.595657	578.728795	482.131213	1826.407075	602.379322	505.595684	1639.295340	551.993132	395.430654	1495.906353	552.405536	395.145416	
197	0.788000	1707.297444	666.523516	733.162522	1483.034968	867.395103	637.519181	1545.217276	814.439297	634.168744	1455.570817	776.210845	633.923054	1548.428416	1131.316662	816.071033	1721.944451	1054.505706	761.620164	1797.452927	878.768086	853.123426	1846.884966	889.088750	797.916770	1796.022415	889.148593	729.670644	1829.169035	754.215002	772.085309	1873.415351	699.159026	717.809498	1818.790793	658.822179	762.958944	1830.199599	749.942422	682.699442	1847.199917	671.290696	575.459182	1830.642700	603.064179	612.872481	1781.925917	708.122313	573.035955	1558.595061	578.734398	482.133925	1826.404452	602.370858	505.603790	1639.297962	551.979423	395.424545	1495.901585	552.394807	395.140171	
198	0.792000	1707.290053	666.520238	733.154535	1483.061552	867.383957	637.494504	1545.225143	814.427614	634.164572	1455.574393	776.210070	633.920908	1548.440099	1131.314993	816.073656	1721.944451	1054.503441	761.627793	1797.449827	878.771007	853.129148	1846.886635	889.087856	797.910988	1796.031237	889.139533	729.678988	1829.153180	754.203558	772.083700	1873.409033	699.172735	717.810273	1818.775415	658.822298	762.959957	1830.199361	749.939263	682.701409	1847.197771	671.291053	575.463891	1830.625057	603.060305	612.888515	1781.932831	708.122849	573.051214	1558.587074	578.743339	482.144296	1826.391697	602.348864	505.612254	1639.254093	551.944673	395.427406	1495.912910	552.380681	395.136595	
